<svg width="1151" height="203" viewBox="0 0 1151 203" fill="none" xmlns="http://www.w3.org/2000/svg">
<path d="M0.0159995 198L1.376 191.472L21.504 188.752H28.032L48.432 191.472L47.072 198H0.0159995ZM18.784 198L56.592 20.656H63.936L44.624 113.68L26.944 198H18.784ZM80.256 198L57.136 40.24L56.592 36.432L55.776 30.448L35.648 27.184L37.008 20.656H97.936L116.432 148.496H113.168L114.256 146.32L176 20.656H185.52V41.6H174.368L172.464 45.408L97.936 198H80.256ZM132.752 198L134.112 191.472L162.128 187.12H182.8L210 191.472L208.64 198H132.752ZM149.072 198L170.56 47.312L179.536 20.656H217.344L203.744 113.408C201.749 127.552 199.755 141.696 197.76 155.84C195.947 169.984 194.224 184.037 192.592 198H149.072ZM185.792 31.536L188.24 20.656H236.112L234.752 27.184L206.464 31.536H185.792ZM273.495 202.352C264.428 202.352 255.906 200.629 247.927 197.184C239.948 193.557 233.511 188.027 228.615 180.592C223.719 173.157 221.271 163.728 221.271 152.304C221.271 141.968 222.812 131.813 225.895 121.84C229.159 111.867 233.964 102.891 240.311 94.912C246.658 86.752 254.455 80.3147 263.703 75.6C273.132 70.8853 284.012 68.528 296.343 68.528C305.41 68.528 313.932 70.3413 321.911 73.968C329.89 77.4133 336.327 82.8533 341.223 90.288C346.119 97.5413 348.567 106.971 348.567 118.576C348.567 128.912 346.935 139.067 343.671 149.04C340.588 159.013 335.874 168.08 329.527 176.24C323.18 184.219 315.292 190.565 305.863 195.28C296.615 199.995 285.826 202.352 273.495 202.352ZM273.495 194.736C277.303 194.736 280.93 192.741 284.375 188.752C287.82 184.581 290.903 179.051 293.623 172.16C296.524 165.269 298.972 157.563 300.967 149.04C303.143 140.336 304.775 131.541 305.863 122.656C307.132 113.589 307.767 104.976 307.767 96.816C307.767 88.4747 306.679 82.944 304.503 80.224C302.508 77.504 299.788 76.144 296.343 76.144C292.535 76.144 288.908 78.2293 285.463 82.4C282.018 86.3893 278.844 91.92 275.943 98.992C273.223 105.883 270.775 113.589 268.599 122.112C266.604 130.635 264.972 139.429 263.703 148.496C262.615 157.381 262.071 165.904 262.071 174.064C262.071 182.405 263.068 187.936 265.063 190.656C267.239 193.376 270.05 194.736 273.495 194.736ZM413.745 202.352C404.678 202.352 396.156 200.629 388.177 197.184C380.198 193.557 373.761 188.027 368.865 180.592C363.969 173.157 361.521 163.728 361.521 152.304C361.521 141.968 363.062 131.813 366.145 121.84C369.409 111.867 374.214 102.891 380.561 94.912C386.908 86.752 394.705 80.3147 403.953 75.6C413.382 70.8853 424.262 68.528 436.593 68.528C445.66 68.528 454.182 70.3413 462.161 73.968C470.14 77.4133 476.577 82.8533 481.473 90.288C486.369 97.5413 488.817 106.971 488.817 118.576C488.817 128.912 487.185 139.067 483.921 149.04C480.838 159.013 476.124 168.08 469.777 176.24C463.43 184.219 455.542 190.565 446.113 195.28C436.865 199.995 426.076 202.352 413.745 202.352ZM413.745 194.736C417.553 194.736 421.18 192.741 424.625 188.752C428.07 184.581 431.153 179.051 433.873 172.16C436.774 165.269 439.222 157.563 441.217 149.04C443.393 140.336 445.025 131.541 446.113 122.656C447.382 113.589 448.017 104.976 448.017 96.816C448.017 88.4747 446.929 82.944 444.753 80.224C442.758 77.504 440.038 76.144 436.593 76.144C432.785 76.144 429.158 78.2293 425.713 82.4C422.268 86.3893 419.094 91.92 416.193 98.992C413.473 105.883 411.025 113.589 408.849 122.112C406.854 130.635 405.222 139.429 403.953 148.496C402.865 157.381 402.321 165.904 402.321 174.064C402.321 182.405 403.318 187.936 405.313 190.656C407.489 193.376 410.3 194.736 413.745 194.736ZM503.998 200.176L499.646 196.912L522.222 91.376L526.846 95.184L505.086 88.656L506.174 83.76L562.206 68.528L566.558 71.792L560.846 100.08L560.302 102.8L552.142 141.968C550.329 150.853 548.515 160.101 546.702 169.712C545.07 179.323 543.982 188.752 543.438 198L503.998 200.176ZM594.302 202.352C587.955 202.352 582.878 200.72 579.07 197.456C575.443 194.192 573.63 189.84 573.63 184.4C573.63 180.592 574.174 176.149 575.262 171.072C576.35 165.813 577.257 161.733 577.982 158.832L587.23 118.576C588.137 114.768 588.862 111.141 589.406 107.696C590.131 104.251 590.494 101.712 590.494 100.08C590.494 98.0853 589.95 96.544 588.862 95.456C587.774 94.1867 586.142 93.552 583.966 93.552C581.971 93.552 579.523 94.096 576.622 95.184C573.902 96.272 570.91 97.9947 567.646 100.352C564.563 102.528 561.299 105.339 557.854 108.784L553.23 104.432H555.134C561.843 96.816 568.19 90.3787 574.174 85.12C580.339 79.68 586.414 75.6 592.398 72.88C598.563 69.9787 605.001 68.528 611.71 68.528C617.694 68.528 622.59 70.3413 626.398 73.968C630.387 77.5947 632.382 83.216 632.382 90.832C632.382 94.8213 632.019 98.9013 631.294 103.072C630.75 107.061 630.025 111.141 629.118 115.312L618.238 162.096C617.513 164.997 616.969 167.536 616.606 169.712C616.243 171.707 616.062 173.339 616.062 174.608C616.062 176.059 616.425 177.056 617.15 177.6C617.875 178.144 618.782 178.416 619.87 178.416C621.502 178.416 623.678 177.419 626.398 175.424C629.299 173.429 632.473 170.075 635.918 165.36L641.086 168.624C638.185 174.064 634.467 179.413 629.934 184.672C625.401 189.749 620.142 194.011 614.158 197.456C608.174 200.72 601.555 202.352 594.302 202.352ZM673.167 196.912C672.986 186.576 672.714 177.328 672.351 169.168C671.988 161.008 671.535 153.392 670.991 146.32C670.628 139.067 670.084 131.813 669.359 124.56C668.815 117.307 668.09 109.509 667.183 101.168C666.82 98.0853 666.186 96.0907 665.279 95.184C664.372 94.096 663.375 93.552 662.287 93.552C660.474 93.552 658.207 95.0027 655.487 97.904C652.948 100.805 650.41 104.795 647.871 109.872L642.703 106.608C648.143 92.464 654.127 82.5813 660.655 76.96C667.364 71.3387 674.799 68.528 682.959 68.528C692.57 68.528 699.007 71.248 702.271 76.688C705.535 82.128 707.53 89.3813 708.255 98.448C708.799 104.976 709.343 112.501 709.887 121.024C710.612 129.365 711.156 138.523 711.519 148.496C711.882 158.288 711.882 168.805 711.519 180.048L707.983 179.776L710.159 175.696C716.687 163.003 722.127 151.035 726.479 139.792C730.831 128.368 734.548 117.307 737.631 106.608C740.714 95.9093 743.615 85.392 746.335 75.056H776.799C777.706 83.9413 778.612 92.8267 779.519 101.712C780.426 110.597 781.242 119.483 781.967 128.368C782.874 137.253 783.69 146.139 784.415 155.024C785.14 163.728 785.775 172.523 786.319 181.408L781.695 179.776L784.415 176.24C788.767 170.8 792.847 165.541 796.655 160.464C800.463 155.205 804.271 149.312 808.079 142.784C812.068 136.256 816.511 128.368 821.407 119.12C822.495 117.125 823.583 115.131 824.671 113.136C825.759 110.96 826.847 108.784 827.935 106.608L818.415 137.344L812.703 120.48C810.527 113.589 808.804 108.149 807.535 104.16C806.447 100.171 805.722 96.9973 805.359 94.64C804.996 92.2827 804.815 90.1067 804.815 88.112C804.815 81.2213 806.538 76.144 809.983 72.88C813.428 69.4347 818.143 67.712 824.127 67.712C826.484 67.712 828.932 68.0747 831.471 68.8C834.191 69.344 836.276 70.16 837.727 71.248C839.178 73.968 840.175 76.688 840.719 79.408C841.444 82.128 841.807 84.848 841.807 87.568C841.807 91.376 841.263 95.184 840.175 98.992C839.268 102.8 837.999 106.517 836.367 110.144C834.735 113.771 832.922 117.307 830.927 120.752C827.663 126.373 824.127 132.357 820.319 138.704C816.511 144.869 812.25 151.307 807.535 158.016C803.002 164.544 797.924 171.163 792.303 177.872C786.863 184.581 780.879 191.291 774.351 198L752.047 200.176L747.695 196.912C747.151 189.84 746.607 182.768 746.063 175.696C745.519 168.443 744.975 161.28 744.431 154.208C743.887 146.955 743.343 139.792 742.799 132.72C742.255 125.467 741.711 118.304 741.167 111.232L744.431 111.504L742.799 116.128C740.26 123.925 737.631 131.451 734.911 138.704C732.372 145.776 729.562 152.667 726.479 159.376C723.396 165.904 720.042 172.432 716.415 178.96C712.97 185.307 709.071 191.653 704.719 198L677.519 200.176L673.167 196.912ZM851.688 184.4C851.688 180.592 852.232 176.149 853.32 171.072C854.408 165.813 855.315 161.733 856.04 158.832L870.728 91.376L875.08 95.184L853.32 88.656L854.408 83.76L910.44 68.528L914.792 71.792L896.296 162.096C895.752 164.997 895.299 167.536 894.936 169.712C894.574 171.707 894.392 173.339 894.392 174.608C894.392 176.059 894.755 177.056 895.48 177.6C896.206 178.144 897.112 178.416 898.2 178.416C899.832 178.416 901.918 177.419 904.456 175.424C906.995 173.429 909.987 170.075 913.432 165.36L918.6 168.624C915.699 174.064 911.982 179.413 907.448 184.672C903.096 189.749 897.928 194.011 891.944 197.456C886.142 200.72 879.614 202.352 872.36 202.352C866.014 202.352 860.936 200.72 857.128 197.456C853.502 194.192 851.688 189.84 851.688 184.4ZM902.824 50.032C897.747 50.032 893.214 48.3093 889.224 44.864C885.416 41.4187 883.512 36.704 883.512 30.72C883.512 23.8293 885.87 18.208 890.584 13.856C895.299 9.32266 900.92 7.05599 907.448 7.05599C913.251 7.05599 917.875 8.86933 921.32 12.496C924.766 16.1227 926.488 20.656 926.488 26.096C926.488 32.9867 924.131 38.6987 919.416 43.232C914.883 47.7653 909.352 50.032 902.824 50.032ZM933.286 81.584L934.374 75.056L963.75 70.704V72.88H1019.24L1017.06 81.584H964.022H962.662H933.286ZM951.782 202.352C945.436 202.352 940.358 200.72 936.55 197.456C932.924 194.192 931.11 189.84 931.11 184.4C931.11 180.592 931.654 176.149 932.742 171.072C933.83 165.813 934.737 161.733 935.462 158.832L952.598 77.232L987.686 31.536H1002.92L975.718 162.096C975.174 164.997 974.63 167.536 974.086 169.712C973.724 171.707 973.542 173.339 973.542 174.608C973.542 176.059 973.905 177.056 974.63 177.6C975.356 178.144 976.262 178.416 977.35 178.416C978.438 178.416 979.708 178.053 981.158 177.328C982.79 176.421 984.513 174.971 986.326 172.976C988.321 170.981 990.497 168.443 992.854 165.36L998.022 168.624C995.121 174.064 991.404 179.413 986.87 184.672C982.518 189.749 977.35 194.011 971.366 197.456C965.564 200.72 959.036 202.352 951.782 202.352ZM1013.18 200.176L1009.1 196.912L1033.58 81.04C1035.57 71.6107 1037.38 62.0907 1039.02 52.48C1040.83 42.688 1042.37 33.0773 1043.64 23.648L1050.44 27.456L1028.14 20.928L1029.22 16.032L1085.8 0.799994L1089.88 4.06398L1069.21 104.16L1068.94 105.248L1061.32 141.968C1060.05 147.952 1058.78 154.117 1057.51 160.464C1056.42 166.629 1055.43 172.885 1054.52 179.232C1053.61 185.579 1052.98 191.835 1052.62 198L1013.18 200.176ZM1103.48 202.352C1097.13 202.352 1092.06 200.72 1088.25 197.456C1084.62 194.192 1082.81 189.84 1082.81 184.4C1082.81 180.592 1083.35 176.149 1084.44 171.072C1085.53 165.813 1086.43 161.733 1087.16 158.832L1096.41 118.576C1097.31 114.768 1098.04 111.141 1098.58 107.696C1099.31 104.251 1099.67 101.712 1099.67 100.08C1099.67 98.0853 1099.13 96.544 1098.04 95.456C1096.95 94.1867 1095.32 93.552 1093.14 93.552C1091.15 93.552 1088.7 94.096 1085.8 95.184C1083.08 96.272 1080.09 97.9947 1076.82 100.352C1073.74 102.528 1070.48 105.339 1067.03 108.784L1062.95 104.432H1064.31C1071.02 96.816 1077.37 90.3787 1083.35 85.12C1089.52 79.68 1095.59 75.6 1101.58 72.88C1107.74 69.9787 1114.18 68.528 1120.89 68.528C1126.87 68.528 1131.77 70.3413 1135.58 73.968C1139.56 77.5947 1141.56 83.216 1141.56 90.832C1141.56 94.8213 1141.2 98.9013 1140.47 103.072C1139.93 107.061 1139.2 111.141 1138.3 115.312L1127.42 162.096C1126.69 164.997 1126.15 167.536 1125.78 169.712C1125.42 171.707 1125.24 173.339 1125.24 174.608C1125.24 176.059 1125.6 177.056 1126.33 177.6C1127.05 178.144 1127.96 178.416 1129.05 178.416C1130.68 178.416 1132.86 177.419 1135.58 175.424C1138.48 173.429 1141.65 170.075 1145.1 165.36L1150.26 168.624C1147.36 174.064 1143.64 179.413 1139.11 184.672C1134.58 189.749 1129.32 194.011 1123.34 197.456C1117.35 200.72 1110.73 202.352 1103.48 202.352Z" fill="#071C3A"/>
</svg>
